<?xml version="1.0" encoding="UTF-8" standalone="no"?>
<!-- Created with Inkscape (http://www.inkscape.org/) -->

<svg
   version="1.1"
   id="svg76"
   width="530.56"
   height="352"
   viewBox="0 0 530.56 352"
   sodipodi:docname="rps-robot-rock.svg"
   inkscape:version="1.1.2 (08b2f3d93c, 2022-04-05)"
   xmlns:inkscape="http://www.inkscape.org/namespaces/inkscape"
   xmlns:sodipodi="http://sodipodi.sourceforge.net/DTD/sodipodi-0.dtd"
   xmlns="http://www.w3.org/2000/svg"
   xmlns:svg="http://www.w3.org/2000/svg">
  <sodipodi:namedview
     id="namedview9"
     pagecolor="#ffffff"
     bordercolor="#666666"
     borderopacity="1.0"
     inkscape:pageshadow="2"
     inkscape:pageopacity="0.0"
     inkscape:pagecheckerboard="0"
     showgrid="false"
     inkscape:zoom="2.0713963"
     inkscape:cx="265.03862"
     inkscape:cy="176.20964"
     inkscape:window-width="1920"
     inkscape:window-height="1031"
     inkscape:window-x="0"
     inkscape:window-y="25"
     inkscape:window-maximized="1"
     inkscape:current-layer="svg76" />
  <defs
     id="defs80" />
  <g
     id="g82"
     transform="matrix(-1,0,0,1,514.35121,-2.6216818)">
    <g
       id="g553"
       transform="translate(9.2568774,-1.4095977)">
      <path
         style="display:none;fill:#020202;stroke-width:0.32"
         d="m 364.43378,314.63275 c -9.12317,-3.73538 -33.06762,-11.31361 -67.2,-21.26828 l -11.52,-3.35979 -5.12,-0.13046 c -2.816,-0.0717 -18.008,-0.27815 -33.76,-0.45866 -15.752,-0.18051 -36.848,-0.47446 -46.88,-0.65321 l -18.24,-0.32499 -128.454009,14.73621 -0.487687,-4.24195 c -0.291536,-2.53581 -0.610433,-4.7009 -0.610433,-4.7009 33.384777,-4.12169 105.252699,-12.44495 128.912129,-15.40436 l 19.68,0.34017 c 24.07528,0.41614 64.92811,0.95153 76.64,1.00441 l 8.64,0.039 8.96,2.54804 c 21.99318,6.25443 45.26848,13.34751 59.72819,18.20201 4.6905,1.57473 8.65248,2.86314 8.80442,2.86314 0.32483,0 9.59366,-18.46215 9.37558,-18.67479 -0.0815,-0.0795 -14.83619,-5.20827 -32.78819,-11.39736 -17.952,-6.18908 -32.7633,-11.37324 -32.91399,-11.52034 -0.15094,-0.14737 0.11965,-1.25077 0.60266,-2.45749 1.05136,-2.62655 3.7912,-10.60497 4.29491,-12.50681 0.40935,-1.54552 0.16343,-1.44584 5.29642,-2.1468 25.48301,-3.47996 105.42429,-15.04375 106.8376,-15.45445 1.03267,-0.30009 1.93459,-0.69411 2.00422,-0.87559 0.0697,-0.18149 1.18365,-6.55717 2.47555,-14.16818 l 2.3489,-13.83819 h -0.80397 c -0.44217,0 -24.91539,2.52969 -54.38493,5.62153 -29.46953,3.09184 -53.65564,5.54686 -53.74691,5.45559 -0.17571,-0.17569 1.96458,-19.32645 2.18218,-19.52571 0.07,-0.0641 28.78336,-7.9246 63.80736,-17.46769 35.024,-9.54308 63.81453,-17.47763 63.97894,-17.63233 0.30887,-0.29062 -0.64979,-29.67694 -1.04896,-32.15465 l -0.20998,-1.30326 -50.4,12.2593 c -27.72,6.74261 -58.08973,14.13536 -67.48826,16.42833 -9.39856,2.29296 -17.17033,4.08698 -17.27059,3.98669 -0.42605,-0.42602 -6.41478,-18.22036 -6.19878,-18.41832 0.13068,-0.11976 24.78963,-11.48202 54.79763,-25.24945 30.008,-13.767435 54.72857,-25.123576 54.93462,-25.235867 0.2409,-0.131293 -3.33811,-5.857968 -10.02717,-16.044166 -5.72096,-8.712 -10.51801,-15.961264 -10.66009,-16.109472 -0.14205,-0.148212 -4.84586,1.819241 -10.45283,4.372112 -43.24064,19.687552 -83.18797,36.253834 -109.63524,45.466093 -18.41336,6.41384 -30.42556,9.44324 -37.83929,9.5428 -2.9533,0.0397 -4.26365,-0.2533 -5.20597,-1.37979 -0.99099,-1.18466 -1.284,-1.48636 -0.44025,-6.62166 1.13004,-6.877734 1.42616,-12.022249 1.22873,-21.347302 -0.2422,-11.439911 -1.08624,-19.007587 -3.31952,-29.762771 -1.39274,-6.707256 -3.78382,-14.889382 -4.51956,-15.465651 -1.15983,-0.908445 -8.89711,0.64207 -19.10163,3.827876 -2.28899,0.714614 -4.63078,1.436493 -5.20397,1.604177 -0.85149,0.249094 -1.01324,0.433758 -0.88402,1.009238 0.45676,2.03432 1.17035,9.12708 1.51019,15.01059 0.41458,7.177542 0.0875,15.630717 -0.86175,22.270906 -1.09878,7.686252 -3.45627,15.967529 -6.07583,21.342867 -1.40895,2.89118 -26.46429,66.41845 -26.85634,68.0937 -0.11504,0.49153 -0.38486,0.94993 -0.59962,1.01867 -0.21475,0.0687 -5.86246,0.64354 -12.55046,1.27735 -6.688,0.63381 -35.25013,3.45141 -63.471408,6.26133 -28.221273,2.80992 -51.638689,5.10895 -52.038709,5.10895 -0.70396,0 -0.74057,-0.14895 -1.14087,-4.64106 -0.22746,-2.55258 -0.35405,-4.68884 -0.28129,-4.74725 0.10848,-0.0871 38.566847,-3.93242 111.906387,-11.18916 l 10.33411,-1.02253 12.57238,-31.52 c 6.91482,-17.336 13.08903,-32.456 13.72049,-33.6 1.32431,-2.399251 3.14696,-8.031364 4.07697,-12.598141 2.62269,-12.878714 2.42198,-29.269139 -0.53663,-43.819949 -0.48342,-2.377549 -0.71322,-4.208085 -0.54735,-4.360087 0.15726,-0.1441 2.30192,-0.921635 4.76592,-1.727855 15.16896,-4.96328 22.39497,-6.78098 32.05581,-8.063629 2.74491,-0.373216 5.26998,-1.331334 6.17365,0.699367 2.27172,5.132293 5.78464,17.125579 7.34325,25.07029 2.42442,12.357927 3.07026,19.391505 3.04117,33.12 -0.0134,6.336 -0.1748,12.528004 -0.35861,13.760004 -0.18381,1.232 -0.29889,2.28154 -0.25575,2.33232 0.15616,0.18377 6.80161,-1.30767 11.19021,-2.51141 24.79309,-6.800453 76.63673,-27.656891 132.01027,-53.107066 4.664,-2.143616 9.60163,-4.410342 10.97251,-5.037169 1.48346,-0.678305 2.60618,-1.021675 2.77331,-0.848182 0.46307,0.480647 31.72464,48.209542 31.6256,48.284675 -0.10365,0.07862 0.47789,-0.188861 -28.89142,13.289152 -11.968,5.49229 -24.424,11.21134 -27.68,12.70899 -16.99863,7.81884 -52.85735,24.27608 -54.30679,24.92394 -1.6432,0.73444 -1.66201,0.75874 -1.3287,1.71487 0.18595,0.53343 0.51334,0.96988 0.72755,0.96988 0.21421,0 31.16743,-7.488 68.7849,-16.64 37.61747,-9.152 68.58189,-16.64 68.80979,-16.64 0.48166,0 0.42493,-1.02662 1.67552,30.31021 0.48618,12.18262 0.79424,22.23994 0.68458,22.34959 -0.15018,0.15019 -128.72813,35.3402 -129.12669,35.3402 -0.0441,0 -0.0802,0.288 -0.0802,0.64 0,0.43095 0.21334,0.64 0.65312,0.64 0.35923,0 13.06723,-1.30073 28.24,-2.8905 15.1728,-1.58977 33.77888,-3.53899 41.34688,-4.3316 7.568,-0.79261 19.664,-2.06389 26.88,-2.82508 7.216,-0.76119 13.17645,-1.33554 13.24541,-1.27633 0.069,0.0592 -0.0421,0.93922 -0.24688,1.95558 -0.20477,1.01636 -1.44759,8.32793 -2.76183,16.24793 -1.31424,7.92 -2.59382,15.624 -2.84352,17.12 -0.24969,1.496 -0.68589,4.20499 -0.96931,6.01999 -0.57088,3.65585 -0.93021,4.40313 -2.7103,5.63674 -2.69277,1.86608 -4.21447,2.12221 -58.11357,9.7812 -28.512,4.05152 -52.81255,7.52252 -54.00122,7.71335 -1.89398,0.30405 -2.1856,0.4441 -2.35843,1.13273 -0.10848,0.43219 -0.1439,0.83813 -0.0788,0.9021 0.10172,0.0999 23.33718,8.14856 55.95843,19.38376 11.8223,4.07176 11.20272,3.83565 11.18246,4.26143 -0.01,0.20278 -4.07763,8.44662 -9.04,18.31963 l -9.02246,17.95093 z"
         id="path555" />
      <g
         id="g5802">
        <path
           style="fill:#020202;stroke-width:0.32"
           d="m 52.161651,294.23072 c 4.441188,-0.62386 21.660681,-2.65198 24.640155,-3.00593 44.286024,-5.33605 54.189664,-6.53442 82.080004,-9.9319 l 21.28,-2.59224 29.51104,0.20061 29.51105,0.20062 0.14862,-0.73138 c 0.0817,-0.40226 0.22897,-2.17138 0.32718,-3.93138 0.26615,-4.76989 1.86711,-13.82745 2.93673,-16.61484 0.16434,-0.42825 -0.12253,-0.50516 -1.88422,-0.50516 -6.20351,0 -8.46897,-5.85521 -9.53494,-24.64359 -0.3741,-6.59359 -0.22205,-15.31449 0.33418,-19.1671 0.40217,-2.78556 1.49142,-4.80992 3.06915,-5.70404 0.69366,-0.39311 1.58652,-0.71711 1.98412,-0.72 0.69255,-0.005 0.65576,-0.1391 -0.87582,-3.19112 -2.02731,-4.03989 -5.08283,-11.20612 -6.28233,-14.73415 l -0.92476,-2.72 -0.10301,3.04 c -0.1834,5.41293 0.8496,13.631 2.34737,18.67454 0.2616,0.88089 0.47564,1.7663 0.47564,1.96756 0,0.40402 -10.96021,10.79521 -13.77146,13.05649 -14.14452,11.37739 -30.45672,14.45389 -52.77774,9.95392 -2.19406,-0.44233 -4.03645,-0.85148 -4.0942,-0.90923 -0.13515,-0.13515 2.04824,-8.81479 2.27424,-9.04079 0.0937,-0.0937 2.01516,0.19407 4.2698,0.63959 6.40209,1.26507 9.75111,1.60984 15.61936,1.60801 6.39467,-0.002 10.24816,-0.56455 15.18626,-2.21694 6.51087,-2.17867 11.05889,-5.12041 18.5048,-11.96918 3.1498,-2.89721 4.205,-4.05528 4.07325,-4.47037 -0.41014,-1.29225 -1.12141,-6.05874 -1.47107,-9.85817 -1.2644,-13.7394 2.39037,-34.60066 6.69664,-38.22416 0.9952,-0.8374 6.70596,-2.39428 7.09899,-1.93534 0.11496,0.13424 0.592,3.22991 1.0601,6.87927 1.43062,11.15341 3.30239,19.21875 6.1699,26.58579 0.62918,1.61646 2.76488,6.25101 4.746,10.29901 3.01532,6.1612 3.84015,7.5789 5.06396,8.70391 2.07961,1.9117 4.13382,2.45609 9.26516,2.45536 2.24069,-3.2e-4 4.131,-0.0633 4.20067,-0.13993 0.0697,-0.0766 -0.20456,-1.93934 -0.60942,-4.13934 -1.31074,-7.1226 -1.78943,-13.03388 -1.97266,-24.36043 -0.22876,-14.14024 0.44197,-26.52845 2.32811,-42.99957 1.33541,-11.66175 1.32825,-11.3588 0.29702,-12.58436 -5.21209,-6.19421 -29.38473,-13.41098 -47.96507,-14.32003 l -3.87264,-0.18947 -21.73222,31.06693 c -11.95271,17.08681 -21.90603,31.06693 -22.11848,31.06693 -0.41318,0 -38.1544,3.60775 -43.5093,4.15914 -1.76,0.18122 -9.176,0.89969 -16.48,1.59659 -7.304,0.6969 -23.000004,2.20379 -34.880004,3.34863 -29.687635,2.86092 -31.493773,3.02854 -31.590499,2.93181 -0.137997,-0.13799 -1.06281,-9.24953 -0.950243,-9.36209 0.0566,-0.0566 27.093424,-2.69294 60.081826,-5.85852 32.9884,-3.16558 60.55492,-5.83889 61.25892,-5.94069 l 1.28,-0.18509 20.48,-29.30757 c 11.264,-16.11916 20.957,-29.85577 21.54,-30.52581 1.66385,-1.91224 3.44128,-2.3764 9.10002,-2.3764 3.56271,0 4.72003,-0.0981 4.72,-0.4 -1e-5,-0.22 0.10275,-0.4 0.22837,-0.4 0.12562,0 20.0712,-4.486416 44.32351,-9.969818 24.25232,-5.483405 44.1528,-9.911405 44.22333,-9.84 0.0705,0.0714 1.81721,23.777198 3.88153,52.679538 l 3.75332,52.54972 -1.21325,2.33028 c -3.06979,5.89604 -7.10583,12.55589 -10.03562,16.5597 -1.96246,2.68186 -2.00803,2.83769 -3.5583,12.17058 -2.89306,17.41666 -4.03261,33.18351 -3.72311,51.51326 0.11152,6.60371 0.23818,12.43874 0.28148,12.96674 l 0.0787,0.96 -9.28,3.11039 c -7.2602,2.4334 -9.67086,3.11248 -11.0758,3.12 -0.98769,0.005 -7.68369,-0.48622 -14.88,-1.09224 l -13.0842,-1.10185 -33.92,-0.20258 -33.92,-0.20258 -29.28,3.55311 c -16.104,1.95421 -70.69187,8.31381 -70.69187,8.31381 0,0 -26.821454,2.89772 -27.570149,2.99639 -0.331816,-2.98513 -0.719753,-5.96338 -1.09812,-8.94285 z m 230.000159,-14.64939 4.72,-1.49593 v -11.49905 -11.49906 l -2.32,0.16702 c -2.66707,0.19202 -29.07906,1.42481 -30.52582,1.42481 -0.92273,0 -0.99527,0.10616 -1.8041,2.64 -1.71039,5.35816 -2.66319,10.39507 -3.05919,16.17213 -0.2153,3.14095 -0.19594,3.29789 0.42172,3.41748 0.35606,0.0689 3.02339,0.28958 5.92739,0.49032 9.05355,0.62583 19.26121,1.55448 19.47521,1.77176 0.36861,0.37426 2.36881,-0.0695 7.16479,-1.58948 z m -17.52,-32.98719 c 9.68,-0.43144 18.78102,-0.87117 20.2245,-0.97716 l 2.62451,-0.19273 0.16203,-1.33256 c 0.0891,-0.73291 0.32327,-3.20457 0.52035,-5.49257 0.49949,-5.79868 1.75105,-15.62195 2.7192,-21.34261 0.44847,-2.64993 0.77355,-4.85183 0.7224,-4.8931 -0.12092,-0.0976 -17.02074,1.79219 -17.15567,1.91838 -0.0565,0.0528 0.19552,1.09735 0.56,2.32118 0.36447,1.22383 0.66268,2.36318 0.66268,2.53187 0,0.36145 -7.63836,1.58145 -12.83726,2.05037 -7.72342,0.69663 -14.12809,-0.64081 -18.35641,-3.83323 -1.28886,-0.97309 -1.82593,-1.19327 -2.62478,-1.07602 l -1.00434,0.14741 -0.23227,3.40766 c -0.48564,7.12503 0.69672,23.98241 1.92678,27.47087 0.0943,0.26732 0.79153,0.33661 2.31162,0.22974 1.19716,-0.0842 10.09666,-0.50605 19.77666,-0.9375 z m 18.84617,-43.04455 c 6.28324,-0.70925 11.53837,-1.2189 11.67808,-1.13255 0.34282,0.21186 4.85315,-6.66506 7.81898,-11.92157 2.30262,-4.08105 2.3991,-4.33458 2.25305,-5.92 -0.0839,-0.91099 -0.56406,-7.46398 -1.06697,-14.56219 -0.50288,-7.09822 -0.99527,-12.98677 -1.09415,-13.08566 -0.14588,-0.14588 -11.00729,1.73457 -29.89352,5.17551 -1.2861,0.23432 -2.41968,0.50736 -2.51908,0.60676 -0.38741,0.38741 -0.49847,24.13304 -0.13644,29.16923 0.32325,4.49651 1.2823,12.96 1.46858,12.96 0.0371,0 5.20823,-0.58029 11.49147,-1.28953 z m 4.19383,-53.77172 c 7.92,-1.44754 14.50102,-2.71917 14.62451,-2.82584 0.25856,-0.22335 -3.37082,-51.76588 -3.66589,-52.060949 -0.16576,-0.165753 -16.09173,3.351933 -49.33412,10.896779 -4.03452,0.91569 -7.20252,1.7447 -7.04,1.84223 0.16252,0.0975 1.71462,0.5621 3.44911,1.03236 7.49732,2.03272 15.66137,5.42152 19.98368,8.29498 2.73467,1.81801 5.79538,4.99691 6.98157,7.25116 0.86404,1.64202 0.92011,1.97865 0.90459,5.43053 -0.009,2.024 -0.40026,6.92 -0.86924,10.88 -0.46898,3.96 -0.95143,8.33838 -1.0721,9.72973 l -0.2194,2.52973 0.92864,-0.18441 c 0.51075,-0.10142 7.40865,-1.36876 15.32865,-2.8163 z"
           id="path5804" />
      </g>
    </g>
  </g>
</svg>
