<?xml version="1.0" encoding="UTF-8" standalone="no"?>
<!-- Created with Inkscape (http://www.inkscape.org/) -->

<svg
   version="1.1"
   id="svg76"
   width="530.56"
   height="352"
   viewBox="0 0 530.56 352"
   xmlns="http://www.w3.org/2000/svg"
   xmlns:svg="http://www.w3.org/2000/svg">
  <defs
     id="defs80" />
  <g
     id="g82">
    <g
       id="g553"
       transform="translate(9.2568774,-1.4095977)">
      <path
         style="display:none;fill:#020202;stroke-width:0.32"
         d="m 364.43378,314.63275 c -9.12317,-3.73538 -33.06762,-11.31361 -67.2,-21.26828 l -11.52,-3.35979 -5.12,-0.13046 c -2.816,-0.0717 -18.008,-0.27815 -33.76,-0.45866 -15.752,-0.18051 -36.848,-0.47446 -46.88,-0.65321 l -18.24,-0.32499 -128.454009,14.73621 -0.487687,-4.24195 c -0.291536,-2.53581 -0.610433,-4.7009 -0.610433,-4.7009 33.384777,-4.12169 105.252699,-12.44495 128.912129,-15.40436 l 19.68,0.34017 c 24.07528,0.41614 64.92811,0.95153 76.64,1.00441 l 8.64,0.039 8.96,2.54804 c 21.99318,6.25443 45.26848,13.34751 59.72819,18.20201 4.6905,1.57473 8.65248,2.86314 8.80442,2.86314 0.32483,0 9.59366,-18.46215 9.37558,-18.67479 -0.0815,-0.0795 -14.83619,-5.20827 -32.78819,-11.39736 -17.952,-6.18908 -32.7633,-11.37324 -32.91399,-11.52034 -0.15094,-0.14737 0.11965,-1.25077 0.60266,-2.45749 1.05136,-2.62655 3.7912,-10.60497 4.29491,-12.50681 0.40935,-1.54552 0.16343,-1.44584 5.29642,-2.1468 25.48301,-3.47996 105.42429,-15.04375 106.8376,-15.45445 1.03267,-0.30009 1.93459,-0.69411 2.00422,-0.87559 0.0697,-0.18149 1.18365,-6.55717 2.47555,-14.16818 l 2.3489,-13.83819 h -0.80397 c -0.44217,0 -24.91539,2.52969 -54.38493,5.62153 -29.46953,3.09184 -53.65564,5.54686 -53.74691,5.45559 -0.17571,-0.17569 1.96458,-19.32645 2.18218,-19.52571 0.07,-0.0641 28.78336,-7.9246 63.80736,-17.46769 35.024,-9.54308 63.81453,-17.47763 63.97894,-17.63233 0.30887,-0.29062 -0.64979,-29.67694 -1.04896,-32.15465 l -0.20998,-1.30326 -50.4,12.2593 c -27.72,6.74261 -58.08973,14.13536 -67.48826,16.42833 -9.39856,2.29296 -17.17033,4.08698 -17.27059,3.98669 -0.42605,-0.42602 -6.41478,-18.22036 -6.19878,-18.41832 0.13068,-0.11976 24.78963,-11.48202 54.79763,-25.24945 30.008,-13.767435 54.72857,-25.123576 54.93462,-25.235867 0.2409,-0.131293 -3.33811,-5.857968 -10.02717,-16.044166 -5.72096,-8.712 -10.51801,-15.961264 -10.66009,-16.109472 -0.14205,-0.148212 -4.84586,1.819241 -10.45283,4.372112 -43.24064,19.687552 -83.18797,36.253834 -109.63524,45.466093 -18.41336,6.41384 -30.42556,9.44324 -37.83929,9.5428 -2.9533,0.0397 -4.26365,-0.2533 -5.20597,-1.37979 -0.99099,-1.18466 -1.284,-1.48636 -0.44025,-6.62166 1.13004,-6.877734 1.42616,-12.022249 1.22873,-21.347302 -0.2422,-11.439911 -1.08624,-19.007587 -3.31952,-29.762771 -1.39274,-6.707256 -3.78382,-14.889382 -4.51956,-15.465651 -1.15983,-0.908445 -8.89711,0.64207 -19.10163,3.827876 -2.28899,0.714614 -4.63078,1.436493 -5.20397,1.604177 -0.85149,0.249094 -1.01324,0.433758 -0.88402,1.009238 0.45676,2.03432 1.17035,9.12708 1.51019,15.01059 0.41458,7.177542 0.0875,15.630717 -0.86175,22.270906 -1.09878,7.686252 -3.45627,15.967529 -6.07583,21.342867 -1.40895,2.89118 -26.46429,66.41845 -26.85634,68.0937 -0.11504,0.49153 -0.38486,0.94993 -0.59962,1.01867 -0.21475,0.0687 -5.86246,0.64354 -12.55046,1.27735 -6.688,0.63381 -35.25013,3.45141 -63.471408,6.26133 -28.221273,2.80992 -51.638689,5.10895 -52.038709,5.10895 -0.70396,0 -0.74057,-0.14895 -1.14087,-4.64106 -0.22746,-2.55258 -0.35405,-4.68884 -0.28129,-4.74725 0.10848,-0.0871 38.566847,-3.93242 111.906387,-11.18916 l 10.33411,-1.02253 12.57238,-31.52 c 6.91482,-17.336 13.08903,-32.456 13.72049,-33.6 1.32431,-2.399251 3.14696,-8.031364 4.07697,-12.598141 2.62269,-12.878714 2.42198,-29.269139 -0.53663,-43.819949 -0.48342,-2.377549 -0.71322,-4.208085 -0.54735,-4.360087 0.15726,-0.1441 2.30192,-0.921635 4.76592,-1.727855 15.16896,-4.96328 22.39497,-6.78098 32.05581,-8.063629 2.74491,-0.373216 5.26998,-1.331334 6.17365,0.699367 2.27172,5.132293 5.78464,17.125579 7.34325,25.07029 2.42442,12.357927 3.07026,19.391505 3.04117,33.12 -0.0134,6.336 -0.1748,12.528004 -0.35861,13.760004 -0.18381,1.232 -0.29889,2.28154 -0.25575,2.33232 0.15616,0.18377 6.80161,-1.30767 11.19021,-2.51141 24.79309,-6.800453 76.63673,-27.656891 132.01027,-53.107066 4.664,-2.143616 9.60163,-4.410342 10.97251,-5.037169 1.48346,-0.678305 2.60618,-1.021675 2.77331,-0.848182 0.46307,0.480647 31.72464,48.209542 31.6256,48.284675 -0.10365,0.07862 0.47789,-0.188861 -28.89142,13.289152 -11.968,5.49229 -24.424,11.21134 -27.68,12.70899 -16.99863,7.81884 -52.85735,24.27608 -54.30679,24.92394 -1.6432,0.73444 -1.66201,0.75874 -1.3287,1.71487 0.18595,0.53343 0.51334,0.96988 0.72755,0.96988 0.21421,0 31.16743,-7.488 68.7849,-16.64 37.61747,-9.152 68.58189,-16.64 68.80979,-16.64 0.48166,0 0.42493,-1.02662 1.67552,30.31021 0.48618,12.18262 0.79424,22.23994 0.68458,22.34959 -0.15018,0.15019 -128.72813,35.3402 -129.12669,35.3402 -0.0441,0 -0.0802,0.288 -0.0802,0.64 0,0.43095 0.21334,0.64 0.65312,0.64 0.35923,0 13.06723,-1.30073 28.24,-2.8905 15.1728,-1.58977 33.77888,-3.53899 41.34688,-4.3316 7.568,-0.79261 19.664,-2.06389 26.88,-2.82508 7.216,-0.76119 13.17645,-1.33554 13.24541,-1.27633 0.069,0.0592 -0.0421,0.93922 -0.24688,1.95558 -0.20477,1.01636 -1.44759,8.32793 -2.76183,16.24793 -1.31424,7.92 -2.59382,15.624 -2.84352,17.12 -0.24969,1.496 -0.68589,4.20499 -0.96931,6.01999 -0.57088,3.65585 -0.93021,4.40313 -2.7103,5.63674 -2.69277,1.86608 -4.21447,2.12221 -58.11357,9.7812 -28.512,4.05152 -52.81255,7.52252 -54.00122,7.71335 -1.89398,0.30405 -2.1856,0.4441 -2.35843,1.13273 -0.10848,0.43219 -0.1439,0.83813 -0.0788,0.9021 0.10172,0.0999 23.33718,8.14856 55.95843,19.38376 11.8223,4.07176 11.20272,3.83565 11.18246,4.26143 -0.01,0.20278 -4.07763,8.44662 -9.04,18.31963 l -9.02246,17.95093 z"
         id="path555" />
      <g
         id="g5802"
         style="display:none">
        <path
           style="fill:#020202;stroke-width:0.32"
           d="m 52.161651,294.23072 c 4.441188,-0.62386 21.660681,-2.65198 24.640155,-3.00593 44.286024,-5.33605 54.189664,-6.53442 82.080004,-9.9319 l 21.28,-2.59224 29.51104,0.20061 29.51105,0.20062 0.14862,-0.73138 c 0.0817,-0.40226 0.22897,-2.17138 0.32718,-3.93138 0.26615,-4.76989 1.86711,-13.82745 2.93673,-16.61484 0.16434,-0.42825 -0.12253,-0.50516 -1.88422,-0.50516 -6.20351,0 -8.46897,-5.85521 -9.53494,-24.64359 -0.3741,-6.59359 -0.22205,-15.31449 0.33418,-19.1671 0.40217,-2.78556 1.49142,-4.80992 3.06915,-5.70404 0.69366,-0.39311 1.58652,-0.71711 1.98412,-0.72 0.69255,-0.005 0.65576,-0.1391 -0.87582,-3.19112 -2.02731,-4.03989 -5.08283,-11.20612 -6.28233,-14.73415 l -0.92476,-2.72 -0.10301,3.04 c -0.1834,5.41293 0.8496,13.631 2.34737,18.67454 0.2616,0.88089 0.47564,1.7663 0.47564,1.96756 0,0.40402 -10.96021,10.79521 -13.77146,13.05649 -14.14452,11.37739 -30.45672,14.45389 -52.77774,9.95392 -2.19406,-0.44233 -4.03645,-0.85148 -4.0942,-0.90923 -0.13515,-0.13515 2.04824,-8.81479 2.27424,-9.04079 0.0937,-0.0937 2.01516,0.19407 4.2698,0.63959 6.40209,1.26507 9.75111,1.60984 15.61936,1.60801 6.39467,-0.002 10.24816,-0.56455 15.18626,-2.21694 6.51087,-2.17867 11.05889,-5.12041 18.5048,-11.96918 3.1498,-2.89721 4.205,-4.05528 4.07325,-4.47037 -0.41014,-1.29225 -1.12141,-6.05874 -1.47107,-9.85817 -1.2644,-13.7394 2.39037,-34.60066 6.69664,-38.22416 0.9952,-0.8374 6.70596,-2.39428 7.09899,-1.93534 0.11496,0.13424 0.592,3.22991 1.0601,6.87927 1.43062,11.15341 3.30239,19.21875 6.1699,26.58579 0.62918,1.61646 2.76488,6.25101 4.746,10.29901 3.01532,6.1612 3.84015,7.5789 5.06396,8.70391 2.07961,1.9117 4.13382,2.45609 9.26516,2.45536 2.24069,-3.2e-4 4.131,-0.0633 4.20067,-0.13993 0.0697,-0.0766 -0.20456,-1.93934 -0.60942,-4.13934 -1.31074,-7.1226 -1.78943,-13.03388 -1.97266,-24.36043 -0.22876,-14.14024 0.44197,-26.52845 2.32811,-42.99957 1.33541,-11.66175 1.32825,-11.3588 0.29702,-12.58436 -5.21209,-6.19421 -29.38473,-13.41098 -47.96507,-14.32003 l -3.87264,-0.18947 -21.73222,31.06693 c -11.95271,17.08681 -21.90603,31.06693 -22.11848,31.06693 -0.41318,0 -38.1544,3.60775 -43.5093,4.15914 -1.76,0.18122 -9.176,0.89969 -16.48,1.59659 -7.304,0.6969 -23.000004,2.20379 -34.880004,3.34863 -29.687635,2.86092 -31.493773,3.02854 -31.590499,2.93181 -0.137997,-0.13799 -1.06281,-9.24953 -0.950243,-9.36209 0.0566,-0.0566 27.093424,-2.69294 60.081826,-5.85852 32.9884,-3.16558 60.55492,-5.83889 61.25892,-5.94069 l 1.28,-0.18509 20.48,-29.30757 c 11.264,-16.11916 20.957,-29.85577 21.54,-30.52581 1.66385,-1.91224 3.44128,-2.3764 9.10002,-2.3764 3.56271,0 4.72003,-0.0981 4.72,-0.4 -1e-5,-0.22 0.10275,-0.4 0.22837,-0.4 0.12562,0 20.0712,-4.486416 44.32351,-9.969818 24.25232,-5.483405 44.1528,-9.911405 44.22333,-9.84 0.0705,0.0714 1.81721,23.777198 3.88153,52.679538 l 3.75332,52.54972 -1.21325,2.33028 c -3.06979,5.89604 -7.10583,12.55589 -10.03562,16.5597 -1.96246,2.68186 -2.00803,2.83769 -3.5583,12.17058 -2.89306,17.41666 -4.03261,33.18351 -3.72311,51.51326 0.11152,6.60371 0.23818,12.43874 0.28148,12.96674 l 0.0787,0.96 -9.28,3.11039 c -7.2602,2.4334 -9.67086,3.11248 -11.0758,3.12 -0.98769,0.005 -7.68369,-0.48622 -14.88,-1.09224 l -13.0842,-1.10185 -33.92,-0.20258 -33.92,-0.20258 -29.28,3.55311 c -16.104,1.95421 -70.69187,8.31381 -70.69187,8.31381 0,0 -26.821454,2.89772 -27.570149,2.99639 -0.331816,-2.98513 -0.719753,-5.96338 -1.09812,-8.94285 z m 230.000159,-14.64939 4.72,-1.49593 v -11.49905 -11.49906 l -2.32,0.16702 c -2.66707,0.19202 -29.07906,1.42481 -30.52582,1.42481 -0.92273,0 -0.99527,0.10616 -1.8041,2.64 -1.71039,5.35816 -2.66319,10.39507 -3.05919,16.17213 -0.2153,3.14095 -0.19594,3.29789 0.42172,3.41748 0.35606,0.0689 3.02339,0.28958 5.92739,0.49032 9.05355,0.62583 19.26121,1.55448 19.47521,1.77176 0.36861,0.37426 2.36881,-0.0695 7.16479,-1.58948 z m -17.52,-32.98719 c 9.68,-0.43144 18.78102,-0.87117 20.2245,-0.97716 l 2.62451,-0.19273 0.16203,-1.33256 c 0.0891,-0.73291 0.32327,-3.20457 0.52035,-5.49257 0.49949,-5.79868 1.75105,-15.62195 2.7192,-21.34261 0.44847,-2.64993 0.77355,-4.85183 0.7224,-4.8931 -0.12092,-0.0976 -17.02074,1.79219 -17.15567,1.91838 -0.0565,0.0528 0.19552,1.09735 0.56,2.32118 0.36447,1.22383 0.66268,2.36318 0.66268,2.53187 0,0.36145 -7.63836,1.58145 -12.83726,2.05037 -7.72342,0.69663 -14.12809,-0.64081 -18.35641,-3.83323 -1.28886,-0.97309 -1.82593,-1.19327 -2.62478,-1.07602 l -1.00434,0.14741 -0.23227,3.40766 c -0.48564,7.12503 0.69672,23.98241 1.92678,27.47087 0.0943,0.26732 0.79153,0.33661 2.31162,0.22974 1.19716,-0.0842 10.09666,-0.50605 19.77666,-0.9375 z m 18.84617,-43.04455 c 6.28324,-0.70925 11.53837,-1.2189 11.67808,-1.13255 0.34282,0.21186 4.85315,-6.66506 7.81898,-11.92157 2.30262,-4.08105 2.3991,-4.33458 2.25305,-5.92 -0.0839,-0.91099 -0.56406,-7.46398 -1.06697,-14.56219 -0.50288,-7.09822 -0.99527,-12.98677 -1.09415,-13.08566 -0.14588,-0.14588 -11.00729,1.73457 -29.89352,5.17551 -1.2861,0.23432 -2.41968,0.50736 -2.51908,0.60676 -0.38741,0.38741 -0.49847,24.13304 -0.13644,29.16923 0.32325,4.49651 1.2823,12.96 1.46858,12.96 0.0371,0 5.20823,-0.58029 11.49147,-1.28953 z m 4.19383,-53.77172 c 7.92,-1.44754 14.50102,-2.71917 14.62451,-2.82584 0.25856,-0.22335 -3.37082,-51.76588 -3.66589,-52.060949 -0.16576,-0.165753 -16.09173,3.351933 -49.33412,10.896779 -4.03452,0.91569 -7.20252,1.7447 -7.04,1.84223 0.16252,0.0975 1.71462,0.5621 3.44911,1.03236 7.49732,2.03272 15.66137,5.42152 19.98368,8.29498 2.73467,1.81801 5.79538,4.99691 6.98157,7.25116 0.86404,1.64202 0.92011,1.97865 0.90459,5.43053 -0.009,2.024 -0.40026,6.92 -0.86924,10.88 -0.46898,3.96 -0.95143,8.33838 -1.0721,9.72973 l -0.2194,2.52973 0.92864,-0.18441 c 0.51075,-0.10142 7.40865,-1.36876 15.32865,-2.8163 z"
           id="path5804" />
      </g>
      <g
         id="g10743"
         transform="translate(-240.84374,10.446513)">
        <path
           style="fill:#020202;stroke-width:0.32"
           d="m 293.00539,283.78421 c 45.3053,-5.04757 86.31321,-9.82386 130.52305,-15.63671 l 29.8486,0.35565 c 16.41674,0.19561 29.98874,0.26906 30.16,0.16321 0.17127,-0.10585 0.31435,-1.65996 0.31796,-3.45357 0.007,-3.72728 0.66988,-11.05919 1.41896,-15.70658 0.28062,-1.741 0.47068,-3.18954 0.42235,-3.21898 -0.0483,-0.0294 -1.06693,-0.21326 -2.26355,-0.40851 -4.83637,-0.78914 -6.49405,-3.98061 -7.77236,-14.9638 -1.06119,-9.11765 -0.93402,-25.17459 0.23619,-29.8219 0.45011,-1.78756 2.31788,-3.85455 3.74006,-4.13899 0.55648,-0.11129 1.01179,-0.24143 1.01179,-0.2892 0,-0.1126 -1.52757,-3.73673 -3.03192,-7.19315 -1.26207,-2.89979 -3.96078,-10.84284 -4.67506,-13.76 l -0.43093,-1.76 -0.22301,1.6 c -0.6124,4.39368 -0.12707,11.47814 1.21419,17.72384 l 0.85123,3.96385 -0.99487,1.79615 c -6.04754,10.91826 -15.88863,18.63655 -28.45029,22.31335 -6.10003,1.78548 -9.47007,2.1671 -19.13934,2.16732 -8.15549,1.9e-4 -9.47711,-0.0786 -14.71913,-0.87728 -3.16753,-0.48263 -5.85275,-0.97869 -5.96717,-1.10236 -0.11443,-0.12368 0.18397,-2.24087 0.6631,-4.70487 0.84133,-4.32672 0.89769,-4.47813 1.64717,-4.42508 0.42681,0.0302 2.79203,0.36341 5.25603,0.74044 8.51611,1.30311 19.40419,1.22546 26.24,-0.18711 10.06834,-2.08057 18.74116,-7.59895 23.97224,-15.25319 l 1.25224,-1.83231 -0.55084,-3.08393 c -1.85003,-10.35746 -1.33762,-21.07982 1.55785,-32.59882 1.20703,-4.80189 3.3444,-10.6704 4.48318,-12.30933 1.07337,-1.54477 1.85564,-1.9639 4.53325,-2.42888 1.26379,-0.21946 2.72682,-0.49325 3.25119,-0.60842 l 0.95339,-0.2094 0.19794,4.41801 c 0.62813,14.0198 3.63132,27.14371 8.9561,39.13802 4.03917,9.09838 5.69672,10.91473 11.56712,12.67526 1.83478,0.55025 8.47097,0.86596 8.91345,0.42405 0.0995,-0.0994 -0.0945,-1.61137 -0.43106,-3.36 -0.84017,-4.36479 -1.85104,-12.75405 -2.24663,-18.64477 -0.42109,-6.27054 -0.42515,-24.20593 -0.007,-31.61905 0.55533,-9.84852 1.89893,-24.37431 2.74059,-29.62887 0.16959,-1.05874 0.0708,-1.30496 -0.87586,-2.18249 -6.28074,-5.82229 -31.22526,-13.00869 -47.30701,-13.62893 l -4.64,-0.17895 -21.74964,31.39043 c -19.68186,28.4061 -21.84189,31.40546 -22.72,31.54843 -0.5337,0.0869 -11.05036,1.09787 -23.37036,2.24661 -12.32,1.14875 -26.144,2.44245 -30.72,2.87489 -4.576,0.43244 -16.816,1.5871 -27.2,2.56592 -10.384,0.97881 -24.1489,2.27867 -30.58865,2.88856 -6.43976,0.6099 -12.21592,1.10891 -12.83592,1.10891 h -1.12727 l -0.39859,-4.49882 c -0.21923,-2.47436 -0.30617,-4.59125 -0.19321,-4.70421 0.20033,-0.20033 10.27529,-1.17205 85.46364,-8.24293 20.064,-1.88686 36.50226,-3.44942 36.52948,-3.47235 0.0272,-0.0229 9.43756,-13.57769 20.91189,-30.1217 11.47433,-16.544 21.20747,-30.537607 21.6292,-31.096903 1.13656,-1.507328 3.28603,-2.023094 8.43129,-2.023094 6.67737,0 16.22913,1.327667 26.09814,3.627562 l 4.8,1.118601 13.12,0.358093 c 7.216,0.196947 24.424,0.712173 38.24,1.144941 51.67932,1.61878 76.12931,2.38058 103.36,3.22042 15.4,0.47497 28.03078,0.88539 28.06841,0.91206 0.13216,0.0937 10.99194,44.42452 10.90231,44.50443 -0.0632,0.0563 -108.55514,-1.22421 -121.48634,-1.43385 -0.70093,-0.0114 -0.73939,0.0746 -0.53146,1.18775 0.1233,0.66 0.26628,1.24295 0.31773,1.29545 0.18074,0.18434 74.74455,23.52545 105.60935,33.05945 5.104,1.5766 12.11657,3.79772 15.58348,4.93582 3.46692,1.1381 6.48144,2.06928 6.69898,2.06928 1.0993,0 3.08829,1.36645 3.77974,2.59675 1.21738,2.16604 1.01703,3.21627 -5.15152,27.00325 -1.78003,6.864 -3.25635,12.50725 -3.28076,12.54055 -0.0602,0.0822 -7.37108,-2.16643 -35.06992,-10.7864 -55.35559,-17.22683 -73.34301,-22.18719 -88.8,-24.48821 -4.3593,-0.64895 -11.16308,-0.78965 -11.71124,-0.24219 -0.25491,0.25457 -1.49683,13.50355 -3.68944,39.36 -1.81785,21.43693 -3.30835,39.35355 -3.31225,39.81471 -0.007,0.79047 -0.27725,0.93341 -4.72707,2.49703 -2.596,0.91221 -7.05035,2.36203 -9.89854,3.22182 l -5.17854,1.56325 -12.26146,-1.42766 c -6.74381,-0.78521 -13.98946,-1.49797 -16.10146,-1.58391 -2.112,-0.0859 -18.384,-0.30425 -36.16,-0.48515 l -32.32,-0.32892 -130.06507,14.96046 c -0.128,-0.6638 -0.70856,-5.17733 -1.09812,-8.94285 z m 233.87213,-14.02078 c 2.294,-0.71954 4.31492,-1.44641 4.49092,-1.61527 0.36151,-0.34686 2.42133,-23.69125 2.11658,-23.98775 -0.10812,-0.1052 -5.38058,0.0653 -11.71658,0.37882 -6.336,0.31355 -14.65866,0.70149 -18.4948,0.86207 -3.83614,0.16059 -7.10698,0.42415 -7.26853,0.5857 -0.83385,0.83385 -2.18966,10.43712 -2.45863,17.41466 l -0.19159,4.96998 14.36677,1.30848 c 7.90173,0.71967 14.50586,1.32718 14.67586,1.35002 0.17,0.0228 2.186,-0.54717 4.48,-1.26671 z m -30.54908,-33.74161 c 10.24095,-0.28395 37.76977,-1.65325 38.00701,-1.89049 0.18842,-0.18843 3.02521,-32.24217 2.86339,-32.35432 -0.13018,-0.0902 -18.23004,1.74764 -18.34517,1.86276 -0.0626,0.0626 0.16336,1.0831 0.50214,2.26776 l 0.61597,2.15393 -0.7502,0.28522 c -1.73012,0.65779 -6.24032,1.91859 -8.17314,2.28475 -3.4694,0.65726 -10.89859,0.48394 -13.92,-0.32475 -2.93514,-0.78558 -6.59653,-2.44185 -8.63633,-3.90673 -1.16176,-0.83431 -1.59101,-0.97186 -2.5005,-0.80124 -1.02182,0.1917 -1.11202,0.30849 -1.30057,1.68414 -0.31121,2.27051 -0.23459,12.84494 0.13063,18.02883 0.31649,4.49228 1.09741,10.34709 1.45792,10.93039 0.097,0.15694 0.84966,0.21451 1.6726,0.12793 0.82293,-0.0866 4.59225,-0.24326 8.37625,-0.34818 z M 679.435,207.69381 c 2.7542,-10.85469 2.7624,-10.89901 2.06928,-11.18773 -0.38272,-0.15942 -8.90384,-2.82787 -18.93584,-5.92987 -15.5849,-4.81901 -71.23332,-22.19165 -99.04,-30.91886 -8.29869,-2.60456 -8.51152,-2.69271 -9.95415,-4.12249 -3.70979,-3.67671 -4.6776,-12.32333 -1.84246,-16.46093 0.40176,-0.58633 1.31235,-1.45174 2.02355,-1.92313 l 1.29306,-0.85707 14.88,0.20393 c 31.79251,0.4357 89.69244,1.12795 94.58934,1.13091 l 5.14938,0.003 -3.07991,-12.56 -3.07987,-12.56 -1.42947,-0.23096 c -0.78621,-0.12702 -11.65347,-0.5275 -24.14947,-0.88995 -30.4136,-0.88216 -113.14247,-3.43797 -120.15916,-3.71217 l -5.59914,-0.21881 1.08407,0.91219 c 1.70488,1.43457 3.45046,3.82525 4.14138,5.67191 0.62914,1.68153 0.62928,1.72633 0.019,6.3146 -0.70023,5.26433 -1.6714,14.96017 -2.27504,22.71319 -0.25921,3.32916 -0.40724,11.01427 -0.40066,20.8 0.0105,15.60187 0.20494,19.2918 1.4544,27.6 l 0.37296,2.48 1.0011,-9.6e-4 c 0.55061,-5.5e-4 5.24911,-0.43214 10.44111,-0.95913 5.192,-0.527 9.60716,-0.95859 9.81145,-0.9591 0.20429,-6.4e-4 0.68496,-0.64852 1.06813,-1.44005 4.512,-9.32056 23.37555,-7.00095 78.40042,9.64078 8.40688,2.54257 45.30806,13.97639 56,17.35156 1.672,0.5278 3.11683,0.97026 3.21072,0.98323 0.0939,0.013 1.415,-4.88046 2.93584,-10.87429 z"
           id="path10745" />
      </g>
    </g>
  </g>
</svg>
